<?xml version="1.0" encoding="utf-8"?>
<!-- Generator: Adobe Illustrator 20.0.0, SVG Export Plug-In . SVG Version: 6.00 Build 0)  -->
<svg version="1.1" xmlns="http://www.w3.org/2000/svg" xmlns:xlink="http://www.w3.org/1999/xlink" x="0px" y="0px"
	 viewBox="0 0 16 16" style="enable-background:new 0 0 16 16;" xml:space="preserve">
<style type="text/css">
	.st0{fill:#2167AC;stroke:#FFFFFF;stroke-width:0.8269;stroke-miterlimit:10;}
	.st1{fill:#FFFFFF;}
</style>
<g id="Layer_1">
	<path class="st0" d="M2.9,0.5C1.6,0.5,0.5,1.6,0.5,3l0,10c0,1.4,1.1,2.5,2.5,2.5H13c1.4,0,2.5-1.1,2.5-2.5l0-10
		c0-1.4-1.1-2.5-2.5-2.5H2.9z"/>
</g>
<g id="Layer_2">
	<g>
		<path class="st1" d="M6.9,11.3L6.9,11.3c-0.3,0-0.5-0.1-0.6-0.2L4.6,9.4C4.4,9.1,4.3,8.9,4.3,8.7c0-0.2,0.1-0.4,0.3-0.6
			C5,7.8,5.5,7.8,5.8,8.2l1.1,1l3.7-4.6c0.1-0.2,0.3-0.3,0.6-0.3c0.2,0,0.4,0,0.6,0.2c0.4,0.3,0.4,0.8,0.1,1.2l-4.4,5.4
			C7.3,11.2,7.2,11.3,6.9,11.3L6.9,11.3z M5.1,8.9C5.1,8.9,5.1,8.9,5.1,8.9L5.1,8.9z"/>
	</g>
</g>
</svg>
