<?xml version="1.0" encoding="UTF-8" standalone="no"?>
<svg width="18px" height="18px" viewBox="0 0 18 18" version="1.1" xmlns="http://www.w3.org/2000/svg" xmlns:xlink="http://www.w3.org/1999/xlink">
    <!-- Generator: Sketch 40.1 (33804) - http://www.bohemiancoding.com/sketch -->
    <title>close-btn</title>
    <desc>Created with Sketch.</desc>
    <defs></defs>
    <g id="Symbols" stroke="none" stroke-width="1" fill="none" fill-rule="evenodd">
        <g id="close-btn" fill="#999999">
            <path d="M9.96406427,9.00035031 L16.3004867,2.66445591 C16.5665044,2.39846034 16.5665044,1.96646754 16.3004867,1.70047198 C16.034469,1.43447641 15.6024402,1.43447641 15.3364224,1.70047198 L9,8.03636638 L2.66357757,1.70047198 C2.39755984,1.43347643 1.96553104,1.43347643 1.6995133,1.70047198 C1.43349557,1.96746753 1.43349557,2.39846034 1.6995133,2.66445591 L8.03593573,9.00035031 L1.6995133,15.3362447 C1.43349557,15.6022403 1.43349557,16.0342331 1.6995133,16.3002286 C1.83252217,16.4332264 2.00653377,16.5002253 2.18154544,16.5002253 C2.3565571,16.5002253 2.5305687,16.4332264 2.66357757,16.3002286 L9,9.96433425 L15.3364224,16.3002286 C15.4694313,16.4332264 15.644443,16.5002253 15.8184546,16.5002253 C15.9924662,16.5002253 16.1674778,16.4332264 16.3004867,16.3002286 C16.5665044,16.0342331 16.5665044,15.6022403 16.3004867,15.3362447 L9.96406427,9.00035031 L9.96406427,9.00035031 Z" id="Shape"></path>
        </g>
    </g>
</svg>