<svg id="Layer_1" data-name="Layer 1" xmlns="http://www.w3.org/2000/svg" xmlns:xlink="http://www.w3.org/1999/xlink" viewBox="0 0 119 119"><defs><style>.cls-1,.cls-2,.cls-3{fill:#fff;}.cls-1{clip-rule:evenodd;}.cls-3{fill-rule:evenodd;}.cls-4{clip-path:url(#clip-path);}.cls-5{clip-path:url(#clip-path-2);}.cls-6{clip-path:url(#clip-path-3);}.cls-7{clip-path:url(#clip-path-4);}.cls-8{clip-path:url(#clip-path-5);}.cls-9{clip-path:url(#clip-path-6);}.cls-10{clip-path:url(#clip-path-7);}</style><clipPath id="clip-path"><path class="cls-1" d="M-497.39,23.16a3.62,3.62,0,0,0-1.69,1.37l-17.69,18a3.79,3.79,0,0,0,0,5.28,3.61,3.61,0,0,0,5.17,0l11.89-12.1,0,56.06A3.69,3.69,0,0,0-496,95.49a3.69,3.69,0,0,0,3.65-3.73h0l0-56.33,12.14,12.44a3.59,3.59,0,0,0,5.16,0,3.76,3.76,0,0,0,1.07-2.64,3.74,3.74,0,0,0-1.07-2.63l-18.21-18.68a3.58,3.58,0,0,0-4.06-.76"/></clipPath><clipPath id="clip-path-2"><path class="cls-1" d="M-495.95.16a59,59,0,0,0-59,59,59,59,0,0,0,59,59,59,59,0,0,0,59-59A59,59,0,0,0-495.95.16Zm0,7.87a51.19,51.19,0,0,1,51.13,51.13,51.19,51.19,0,0,1-51.13,51.13,51.19,51.19,0,0,1-51.13-51.13A51.19,51.19,0,0,1-495.95,8Z"/></clipPath><clipPath id="clip-path-3"><path class="cls-1" d="M-352.5,95.16a3.62,3.62,0,0,0,1.69-1.37l17.69-18a3.79,3.79,0,0,0,0-5.28,3.61,3.61,0,0,0-5.17,0l-11.89,12.1,0-56.06a3.69,3.69,0,0,0-3.65-3.73,3.69,3.69,0,0,0-3.65,3.73h0l0,56.33-12.14-12.44a3.59,3.59,0,0,0-5.16,0,3.76,3.76,0,0,0-1.07,2.64,3.74,3.74,0,0,0,1.07,2.63l18.21,18.68a3.58,3.58,0,0,0,4.06.76"/></clipPath><clipPath id="clip-path-4"><path class="cls-1" d="M-353.95.16a59,59,0,0,0-59,59,59,59,0,0,0,59,59,59,59,0,0,0,59-59A59,59,0,0,0-353.95.16Zm0,7.87a51.19,51.19,0,0,1,51.13,51.13,51.19,51.19,0,0,1-51.13,51.13,51.19,51.19,0,0,1-51.13-51.13A51.19,51.19,0,0,1-353.95,8Z"/></clipPath><clipPath id="clip-path-5"><path class="cls-1" d="M-183.94,64.26h-23.8v23.8a4.75,4.75,0,0,1-4.76,4.76,4.75,4.75,0,0,1-4.76-4.76V64.26h-23.8a4.75,4.75,0,0,1-4.76-4.76,4.75,4.75,0,0,1,4.76-4.76h23.8V30.94a4.75,4.75,0,0,1,4.76-4.76,4.75,4.75,0,0,1,4.76,4.76v23.8h23.8a4.75,4.75,0,0,1,4.76,4.76A4.75,4.75,0,0,1-183.94,64.26ZM-212.5,0A59.5,59.5,0,0,0-272,59.5,59.5,59.5,0,0,0-212.5,119,59.5,59.5,0,0,0-153,59.5,59.5,59.5,0,0,0-212.5,0Z"/></clipPath><clipPath id="clip-path-6"><path class="cls-1" d="M48.13,87.18"/></clipPath><clipPath id="clip-path-7"><rect class="cls-2" x="-2884.5" y="-2424.04" width="14544.05" height="9405.73"/></clipPath></defs><title>icon-save</title><path class="cls-3" d="M-497.39,23.16a3.62,3.62,0,0,0-1.69,1.37l-17.69,18a3.79,3.79,0,0,0,0,5.28,3.61,3.61,0,0,0,5.17,0l11.89-12.1,0,56.06A3.69,3.69,0,0,0-496,95.49a3.69,3.69,0,0,0,3.65-3.73h0l0-56.33,12.14,12.44a3.59,3.59,0,0,0,5.16,0,3.76,3.76,0,0,0,1.07-2.64,3.74,3.74,0,0,0-1.07-2.63l-18.21-18.68a3.58,3.58,0,0,0-4.06-.76"/><path class="cls-3" d="M-495.95.16a59,59,0,0,0-59,59,59,59,0,0,0,59,59,59,59,0,0,0,59-59A59,59,0,0,0-495.95.16Zm0,7.87a51.19,51.19,0,0,1,51.13,51.13,51.19,51.19,0,0,1-51.13,51.13,51.19,51.19,0,0,1-51.13-51.13A51.19,51.19,0,0,1-495.95,8Z"/><path class="cls-3" d="M-352.5,95.16a3.62,3.62,0,0,0,1.69-1.37l17.69-18a3.79,3.79,0,0,0,0-5.28,3.61,3.61,0,0,0-5.17,0l-11.89,12.1,0-56.06a3.69,3.69,0,0,0-3.65-3.73,3.69,3.69,0,0,0-3.65,3.73h0l0,56.33-12.14-12.44a3.59,3.59,0,0,0-5.16,0,3.76,3.76,0,0,0-1.07,2.64,3.74,3.74,0,0,0,1.07,2.63l18.21,18.68a3.58,3.58,0,0,0,4.06.76"/><path class="cls-3" d="M-353.95.16a59,59,0,0,0-59,59,59,59,0,0,0,59,59,59,59,0,0,0,59-59A59,59,0,0,0-353.95.16Zm0,7.87a51.19,51.19,0,0,1,51.13,51.13,51.19,51.19,0,0,1-51.13,51.13,51.19,51.19,0,0,1-51.13-51.13A51.19,51.19,0,0,1-353.95,8Z"/><path class="cls-3" d="M-183.94,64.26h-23.8v23.8a4.75,4.75,0,0,1-4.76,4.76,4.75,4.75,0,0,1-4.76-4.76V64.26h-23.8a4.75,4.75,0,0,1-4.76-4.76,4.75,4.75,0,0,1,4.76-4.76h23.8V30.94a4.75,4.75,0,0,1,4.76-4.76,4.75,4.75,0,0,1,4.76,4.76v23.8h23.8a4.75,4.75,0,0,1,4.76,4.76A4.75,4.75,0,0,1-183.94,64.26ZM-212.5,0A59.5,59.5,0,0,0-272,59.5,59.5,59.5,0,0,0-212.5,119,59.5,59.5,0,0,0-153,59.5,59.5,59.5,0,0,0-212.5,0Z"/><path class="cls-3" d="M48.13,87.18"/><g class="cls-9"><rect class="cls-2" x="-2884.5" y="-2424.04" width="14544.05" height="9405.73"/><g class="cls-10"><rect class="cls-2" x="3.03" y="11.38" width="116.32" height="101.42"/></g></g><path class="cls-3" d="M46.13,87.18a4.89,4.89,0,0,1-3.58-1.94L27.64,65.52a4.92,4.92,0,0,1,7.84-5.93L47,74.8,83.35,38.44a4.92,4.92,0,1,1,7,7L49.94,85.74a4.86,4.86,0,0,1-3.47,1.45h-.34"/><path class="cls-3" d="M59.05.16a59,59,0,1,0,59,59A59,59,0,0,0,59.05.16Zm0,7.87A51.13,51.13,0,1,1,7.92,59.16,51.19,51.19,0,0,1,59.05,8Z"/></svg>