<svg id="Layer_1" data-name="Layer 1" xmlns="http://www.w3.org/2000/svg" xmlns:xlink="http://www.w3.org/1999/xlink" viewBox="0 0 119 119"><defs><style>.cls-1,.cls-2,.cls-9{fill:#fff;}.cls-1{clip-rule:evenodd;}.cls-2{fill-rule:evenodd;}.cls-3{clip-path:url(#clip-path);}.cls-4{clip-path:url(#clip-path-2);}.cls-5{clip-path:url(#clip-path-3);}.cls-6{clip-path:url(#clip-path-4);}.cls-7{clip-path:url(#clip-path-5);}.cls-8{clip-path:url(#clip-path-6);}</style><clipPath id="clip-path"><path class="cls-1" d="M-357.39,23.16a3.62,3.62,0,0,0-1.69,1.37l-17.69,18a3.79,3.79,0,0,0,0,5.28,3.61,3.61,0,0,0,5.17,0l11.89-12.1,0,56.06A3.69,3.69,0,0,0-356,95.49a3.69,3.69,0,0,0,3.65-3.73h0l0-56.33,12.14,12.44a3.59,3.59,0,0,0,5.16,0,3.76,3.76,0,0,0,1.07-2.64,3.74,3.74,0,0,0-1.07-2.63l-18.21-18.68a3.58,3.58,0,0,0-4.06-.76"/></clipPath><clipPath id="clip-path-2"><path class="cls-1" d="M-355.95.16a59,59,0,0,0-59,59,59,59,0,0,0,59,59,59,59,0,0,0,59-59A59,59,0,0,0-355.95.16Zm0,7.87a51.19,51.19,0,0,1,51.13,51.13,51.19,51.19,0,0,1-51.13,51.13,51.19,51.19,0,0,1-51.13-51.13A51.19,51.19,0,0,1-355.95,8Z"/></clipPath><clipPath id="clip-path-3"><path class="cls-1" d="M-212.5,95.16a3.62,3.62,0,0,0,1.69-1.37l17.69-18a3.79,3.79,0,0,0,0-5.28,3.61,3.61,0,0,0-5.17,0l-11.89,12.1,0-56.06a3.69,3.69,0,0,0-3.65-3.73,3.69,3.69,0,0,0-3.65,3.73h0l0,56.33-12.14-12.44a3.59,3.59,0,0,0-5.16,0,3.76,3.76,0,0,0-1.07,2.64,3.74,3.74,0,0,0,1.07,2.63l18.21,18.68a3.58,3.58,0,0,0,4.06.76"/></clipPath><clipPath id="clip-path-4"><path class="cls-1" d="M-213.95.16a59,59,0,0,0-59,59,59,59,0,0,0,59,59,59,59,0,0,0,59-59A59,59,0,0,0-213.95.16Zm0,7.87a51.19,51.19,0,0,1,51.13,51.13,51.19,51.19,0,0,1-51.13,51.13,51.19,51.19,0,0,1-51.13-51.13A51.19,51.19,0,0,1-213.95,8Z"/></clipPath><clipPath id="clip-path-5"><path class="cls-1" d="M-43.94,64.26h-23.8v23.8a4.75,4.75,0,0,1-4.76,4.76,4.75,4.75,0,0,1-4.76-4.76V64.26h-23.8a4.75,4.75,0,0,1-4.76-4.76,4.75,4.75,0,0,1,4.76-4.76h23.8V30.94a4.75,4.75,0,0,1,4.76-4.76,4.75,4.75,0,0,1,4.76,4.76v23.8h23.8a4.75,4.75,0,0,1,4.76,4.76A4.75,4.75,0,0,1-43.94,64.26ZM-72.5,0A59.5,59.5,0,0,0-132,59.5,59.5,59.5,0,0,0-72.5,119,59.5,59.5,0,0,0-13,59.5,59.5,59.5,0,0,0-72.5,0Z"/></clipPath><clipPath id="clip-path-6"><path class="cls-1" d="M188.13,87.18"/></clipPath></defs><title>icon-duplicate</title><path class="cls-2" d="M-357.39,23.16a3.62,3.62,0,0,0-1.69,1.37l-17.69,18a3.79,3.79,0,0,0,0,5.28,3.61,3.61,0,0,0,5.17,0l11.89-12.1,0,56.06A3.69,3.69,0,0,0-356,95.49a3.69,3.69,0,0,0,3.65-3.73h0l0-56.33,12.14,12.44a3.59,3.59,0,0,0,5.16,0,3.76,3.76,0,0,0,1.07-2.64,3.74,3.74,0,0,0-1.07-2.63l-18.21-18.68a3.58,3.58,0,0,0-4.06-.76"/><path class="cls-2" d="M-355.95.16a59,59,0,0,0-59,59,59,59,0,0,0,59,59,59,59,0,0,0,59-59A59,59,0,0,0-355.95.16Zm0,7.87a51.19,51.19,0,0,1,51.13,51.13,51.19,51.19,0,0,1-51.13,51.13,51.19,51.19,0,0,1-51.13-51.13A51.19,51.19,0,0,1-355.95,8Z"/><path class="cls-2" d="M-212.5,95.16a3.62,3.62,0,0,0,1.69-1.37l17.69-18a3.79,3.79,0,0,0,0-5.28,3.61,3.61,0,0,0-5.17,0l-11.89,12.1,0-56.06a3.69,3.69,0,0,0-3.65-3.73,3.69,3.69,0,0,0-3.65,3.73h0l0,56.33-12.14-12.44a3.59,3.59,0,0,0-5.16,0,3.76,3.76,0,0,0-1.07,2.64,3.74,3.74,0,0,0,1.07,2.63l18.21,18.68a3.58,3.58,0,0,0,4.06.76"/><path class="cls-2" d="M-213.95.16a59,59,0,0,0-59,59,59,59,0,0,0,59,59,59,59,0,0,0,59-59A59,59,0,0,0-213.95.16Zm0,7.87a51.19,51.19,0,0,1,51.13,51.13,51.19,51.19,0,0,1-51.13,51.13,51.19,51.19,0,0,1-51.13-51.13A51.19,51.19,0,0,1-213.95,8Z"/><path class="cls-2" d="M-43.94,64.26h-23.8v23.8a4.75,4.75,0,0,1-4.76,4.76,4.75,4.75,0,0,1-4.76-4.76V64.26h-23.8a4.75,4.75,0,0,1-4.76-4.76,4.75,4.75,0,0,1,4.76-4.76h23.8V30.94a4.75,4.75,0,0,1,4.76-4.76,4.75,4.75,0,0,1,4.76,4.76v23.8h23.8a4.75,4.75,0,0,1,4.76,4.76A4.75,4.75,0,0,1-43.94,64.26ZM-72.5,0A59.5,59.5,0,0,0-132,59.5,59.5,59.5,0,0,0-72.5,119,59.5,59.5,0,0,0-13,59.5,59.5,59.5,0,0,0-72.5,0Z"/><path class="cls-2" d="M109.81,6h-54a8.33,8.33,0,0,0-8.58,8.47V67.22c0,4.85,3.68,9.93,8.58,9.93h54c4.9,0,8.58-5.08,8.58-9.93V14.47A8.33,8.33,0,0,0,109.81,6Zm2.65,38.54V67.22c0,1.61-1.65,4-3.28,4H56.45c-1.63,0-3.28-2.39-3.28-4V14.47a2.4,2.4,0,0,1,2.65-2.55h54a2.4,2.4,0,0,1,2.65,2.55Z"/><path class="cls-2" d="M66.56,103.07c0,1.61-1.65,4-3.28,4H9.92c-1.63,0-2.65-2.39-2.65-4V50.33a2.4,2.4,0,0,1,2.65-2.55H43.8V41.86H9.92a8.33,8.33,0,0,0-8.58,8.48v52.74C1.34,107.92,5,113,9.92,113H63.28c4.91,0,9.21-5.08,9.21-9.93V80.39H66.56Z"/><path class="cls-2" d="M188.13,87.18"/><g class="cls-8"><rect class="cls-9" x="-2744.5" y="-2424.04" width="14544.05" height="9405.73"/></g></svg>