<svg id="Layer_1" data-name="Layer 1" xmlns="http://www.w3.org/2000/svg" xmlns:xlink="http://www.w3.org/1999/xlink" viewBox="0 0 119 119"><defs><style>.cls-1,.cls-2,.cls-9{fill:#fff;}.cls-1{clip-rule:evenodd;}.cls-2{fill-rule:evenodd;}.cls-3{clip-path:url(#clip-path);}.cls-4{clip-path:url(#clip-path-2);}.cls-5{clip-path:url(#clip-path-3);}.cls-6{clip-path:url(#clip-path-4);}.cls-7{clip-path:url(#clip-path-5);}.cls-8{clip-path:url(#clip-path-6);}</style><clipPath id="clip-path"><path class="cls-1" d="M-225.39,23.16a3.62,3.62,0,0,0-1.69,1.37l-17.69,18a3.79,3.79,0,0,0,0,5.28,3.61,3.61,0,0,0,5.17,0l11.89-12.1,0,56.06A3.69,3.69,0,0,0-224,95.49a3.69,3.69,0,0,0,3.65-3.73h0l0-56.33,12.14,12.44a3.59,3.59,0,0,0,5.16,0,3.76,3.76,0,0,0,1.07-2.64,3.74,3.74,0,0,0-1.07-2.63l-18.21-18.68a3.58,3.58,0,0,0-4.06-.76"/></clipPath><clipPath id="clip-path-2"><path class="cls-1" d="M-223.95.16a59,59,0,0,0-59,59,59,59,0,0,0,59,59,59,59,0,0,0,59-59A59,59,0,0,0-223.95.16Zm0,7.87a51.19,51.19,0,0,1,51.13,51.13,51.19,51.19,0,0,1-51.13,51.13,51.19,51.19,0,0,1-51.13-51.13A51.19,51.19,0,0,1-223.95,8Z"/></clipPath><clipPath id="clip-path-3"><path class="cls-1" d="M-80.5,95.16a3.62,3.62,0,0,0,1.69-1.37l17.69-18a3.79,3.79,0,0,0,0-5.28,3.61,3.61,0,0,0-5.17,0l-11.89,12.1,0-56.06a3.69,3.69,0,0,0-3.65-3.73,3.69,3.69,0,0,0-3.65,3.73h0l0,56.33L-97.61,70.47a3.59,3.59,0,0,0-5.16,0,3.76,3.76,0,0,0-1.07,2.64,3.74,3.74,0,0,0,1.07,2.63L-84.57,94.4a3.58,3.58,0,0,0,4.06.76"/></clipPath><clipPath id="clip-path-4"><path class="cls-1" d="M-81.95.16a59,59,0,0,0-59,59,59,59,0,0,0,59,59,59,59,0,0,0,59-59A59,59,0,0,0-81.95.16Zm0,7.87A51.19,51.19,0,0,1-30.82,59.16,51.19,51.19,0,0,1-81.95,110.3a51.19,51.19,0,0,1-51.13-51.13A51.19,51.19,0,0,1-81.95,8Z"/></clipPath><clipPath id="clip-path-5"><path class="cls-1" d="M88.06,64.26H64.26v23.8a4.76,4.76,0,0,1-9.52,0V64.26H30.94a4.76,4.76,0,1,1,0-9.52h23.8V30.94a4.76,4.76,0,0,1,9.52,0v23.8h23.8a4.76,4.76,0,1,1,0,9.52ZM59.5,0A59.5,59.5,0,1,0,119,59.5,59.5,59.5,0,0,0,59.5,0Z"/></clipPath><clipPath id="clip-path-6"><path class="cls-1" d="M320.13,87.18"/></clipPath></defs><title>icon-add</title><path class="cls-2" d="M-225.39,23.16a3.62,3.62,0,0,0-1.69,1.37l-17.69,18a3.79,3.79,0,0,0,0,5.28,3.61,3.61,0,0,0,5.17,0l11.89-12.1,0,56.06A3.69,3.69,0,0,0-224,95.49a3.69,3.69,0,0,0,3.65-3.73h0l0-56.33,12.14,12.44a3.59,3.59,0,0,0,5.16,0,3.76,3.76,0,0,0,1.07-2.64,3.74,3.74,0,0,0-1.07-2.63l-18.21-18.68a3.58,3.58,0,0,0-4.06-.76"/><path class="cls-2" d="M-223.95.16a59,59,0,0,0-59,59,59,59,0,0,0,59,59,59,59,0,0,0,59-59A59,59,0,0,0-223.95.16Zm0,7.87a51.19,51.19,0,0,1,51.13,51.13,51.19,51.19,0,0,1-51.13,51.13,51.19,51.19,0,0,1-51.13-51.13A51.19,51.19,0,0,1-223.95,8Z"/><path class="cls-2" d="M-80.5,95.16a3.62,3.62,0,0,0,1.69-1.37l17.69-18a3.79,3.79,0,0,0,0-5.28,3.61,3.61,0,0,0-5.17,0l-11.89,12.1,0-56.06a3.69,3.69,0,0,0-3.65-3.73,3.69,3.69,0,0,0-3.65,3.73h0l0,56.33L-97.61,70.47a3.59,3.59,0,0,0-5.16,0,3.76,3.76,0,0,0-1.07,2.64,3.74,3.74,0,0,0,1.07,2.63L-84.57,94.4a3.58,3.58,0,0,0,4.06.76"/><path class="cls-2" d="M-81.95.16a59,59,0,0,0-59,59,59,59,0,0,0,59,59,59,59,0,0,0,59-59A59,59,0,0,0-81.95.16Zm0,7.87A51.19,51.19,0,0,1-30.82,59.16,51.19,51.19,0,0,1-81.95,110.3a51.19,51.19,0,0,1-51.13-51.13A51.19,51.19,0,0,1-81.95,8Z"/><path class="cls-2" d="M88.06,64.26H64.26v23.8a4.76,4.76,0,0,1-9.52,0V64.26H30.94a4.76,4.76,0,1,1,0-9.52h23.8V30.94a4.76,4.76,0,0,1,9.52,0v23.8h23.8a4.76,4.76,0,1,1,0,9.52ZM59.5,0A59.5,59.5,0,1,0,119,59.5,59.5,59.5,0,0,0,59.5,0Z"/><path class="cls-2" d="M320.13,87.18"/><g class="cls-8"><rect class="cls-9" x="-2612.5" y="-2424.04" width="14544.05" height="9405.73"/></g></svg>