<?xml version="1.0" encoding="utf-8"?>
<!-- Generator: Adobe Illustrator 21.0.0, SVG Export Plug-In . SVG Version: 6.00 Build 0)  -->
<svg version="1.1" id="Layer_1" xmlns="http://www.w3.org/2000/svg" xmlns:xlink="http://www.w3.org/1999/xlink" x="0px" y="0px"
	 viewBox="0 0 119 119" style="enable-background:new 0 0 119 119;" xml:space="preserve">
<style type="text/css">
	.st0{fill:#FFFFFF;}
	.st1{fill:none;}
</style>
<title>icon-delete</title>
<path class="st0" d="M76.3,83.6L59.5,66.8L42.7,83.6c-1.9,1.9-4.9,1.9-6.7,0c0,0,0,0,0,0c-1.9-1.9-1.9-4.9,0-6.7c0,0,0,0,0,0
	l16.8-16.8L35.9,43.2c-1.9-1.9-1.9-4.9,0-6.7c0,0,0,0,0,0c1.9-1.9,4.9-1.9,6.7,0c0,0,0,0,0,0l16.8,16.8l16.8-16.8
	c1.9-1.9,4.9-1.9,6.7,0c0,0,0,0,0,0c1.9,1.9,1.9,4.9,0,6.7c0,0,0,0,0,0L66.2,60.1l16.8,16.8c1.9,1.9,1.9,4.9,0,6.7c0,0,0,0,0,0
	C81.2,85.5,78.2,85.5,76.3,83.6C76.3,83.6,76.3,83.6,76.3,83.6z M101.6,18C78.3-5.2,40.7-5.2,17.4,18s-23.2,60.9,0,84.1
	s60.9,23.2,84.1,0S124.8,41.2,101.6,18z"/>
<path class="st0" d="M76.3,83.1L59.5,66.2L42.7,83.1c-1.9,1.8-4.9,1.8-6.7-0.1c-1.8-1.8-1.8-4.7,0-6.6l16.8-16.8L35.9,42.7
	c-1.9-1.8-2-4.8-0.1-6.7s4.8-2,6.7-0.1c0.1,0,0.1,0.1,0.1,0.1l16.8,16.8l16.8-16.8c1.9-1.8,4.9-1.8,6.7,0.1c1.8,1.8,1.8,4.7,0,6.6
	L66.2,59.5l16.8,16.8c1.9,1.8,2,4.8,0.1,6.7c-1.8,1.9-4.8,2-6.7,0.1C76.4,83.2,76.4,83.1,76.3,83.1z M101.6,17.4
	c-23.2-23.2-60.9-23.2-84.1,0s-23.2,60.9,0,84.1c23.2,23.2,60.9,23.2,84.1,0C124.8,78.3,124.8,40.7,101.6,17.4
	C101.6,17.4,101.6,17.4,101.6,17.4z"/>
<path class="st0" d="M320.1-45.8"/>
<g>
	<path class="st1" d="M320.1-45.8"/>
</g>
</svg>
