<svg id="Layer_1" data-name="Layer 1" xmlns="http://www.w3.org/2000/svg" viewBox="0 0 24 24"><defs><style>.cls-1{fill:#fff;fill-rule:evenodd;}</style></defs><title>icon_NewDoc</title><path class="cls-1" d="M20.43,16.59H17.68v2.75a.55.55,0,0,1-1.1,0V16.59H13.83a.55.55,0,1,1,0-1.1h2.75V12.74a.55.55,0,0,1,1.1,0v2.75h2.75a.55.55,0,1,1,0,1.1Zm-3.3-7.42A6.87,6.87,0,1,0,24,16,6.87,6.87,0,0,0,17.13,9.17Z"/><path class="cls-1" d="M9,16a8,8,0,0,1,6.29-7.81V.43A.43.43,0,0,0,14.86,0H.83A.43.43,0,0,0,.4.43V16.76a.43.43,0,0,0,.43.43H9.1A8,8,0,0,1,9,16ZM3.12,2.22h9.45a.43.43,0,0,1,0,.86H3.12a.43.43,0,0,1,0-.86Zm0,2.58h9.45a.43.43,0,0,1,0,.86H3.12a.43.43,0,0,1,0-.86Zm0,2.58h9.45a.43.43,0,0,1,0,.86H3.12a.43.43,0,0,1,0-.86Zm0,3.44a.43.43,0,0,1,0-.86H9a.43.43,0,0,1,0,.86Z"/></svg>