<?xml version="1.0" encoding="UTF-8" standalone="no"?>
<svg width="375px" height="347px" viewBox="0 0 375 347" version="1.1" xmlns="http://www.w3.org/2000/svg" xmlns:xlink="http://www.w3.org/1999/xlink">
    <!-- Generator: Sketch 40.1 (33804) - http://www.bohemiancoding.com/sketch -->
    <title>null-state</title>
    <desc>Created with Sketch.</desc>
    <defs>
        <linearGradient x1="50%" y1="0%" x2="50%" y2="100%" id="linearGradient-1">
            <stop stop-color="#FB9914" offset="0%"></stop>
            <stop stop-color="#DE5E06" offset="100%"></stop>
        </linearGradient>
        <path d="M12.2897392,4.49415034 C12.2897392,2.01209964 14.3100015,0 16.7813933,0 L187.689269,0 C190.169941,0 192.180923,2.01658947 192.180923,4.49415034 L192.180923,43.5058497 C192.180923,45.9879004 190.16066,48 187.689269,48 L16.7813933,48 C14.3007212,48 12.2897392,45.9834105 12.2897392,43.5058497 L12.2897392,4.49415034 Z" id="path-2"></path>
        <mask id="mask-3" maskContentUnits="userSpaceOnUse" maskUnits="objectBoundingBox" x="-1" y="-1" width="181.891184" height="50">
            <rect x="11.2897392" y="-1" width="181.891184" height="50" fill="white"></rect>
            <use xlink:href="#path-2" fill="black"></use>
        </mask>
    </defs>
    <g id="Symbols" stroke="none" stroke-width="1" fill="none" fill-rule="evenodd">
        <g id="null-state">
            <polygon id="Fill-1" fill="#F3F4F4" points="113.16203 144.609052 113.16203 126.567052 116.09903 121.423052 121.87003 119.776052 209.78703 119.692052 214.34903 111.067052 270.97403 111.067052 275.37003 119.583052 279.72403 119.880052 272.28703 202.808052 313.34903 203.317052 269.91203 237.255052 114.54803 237.642052 112.08103 233.642052 112.49403 222.692052 122.22503 223.005052 137.08403 201.852052 139.72403 198.630052 143.66203 197.475052 234.20303 198.254052 246.52103 181.517052 242.49503 176.984052 233.17203 176.764052 238.67403 153.612052 233.57903 153.401052 235.09603 144.026052 227.89103 143.973052 225.37003 138.192052 173.52103 138.449052 170.12003 144.526052"></polygon>
            <text id="No-Sub-Portfolios" font-family="FidelitySans-Bold, Fidelity Sans" font-size="36" font-weight="bold" line-spacing="30" fill="#808080">
                <tspan x="35" y="67">No Sub-Portfolios</tspan>
            </text>
            <path d="M71.8173303,222.428552 L124.76033,222.428552 L136.59733,202.516552 L139.70733,198.266552 L147.46733,198.141552 L233.51933,197.474552 L246.52133,181.516552 L245.63733,179.224552 L242.06233,177.435552 L232.38433,176.704552 L238.54833,154.070552 L232.91133,153.380552 L234.94333,144.916552 L228.24433,144.680552 L225.13733,138.449552 L173.95033,138.449552 L170.35633,144.981552 L86.5923303,145.266552 C86.5923303,145.266552 83.3053303,145.558552 81.7183303,146.849552 C80.1313303,148.141552 79.4773303,151.641552 79.4773303,151.641552 L70.2033303,219.099552 L71.8173303,222.428552 Z" id="Fill-2" fill="#CECECE"></path>
            <path d="M112.49423,144.981152 L112.58123,126.308152 C112.58123,126.308152 114.19023,122.853152 116.09923,121.423152 C118.00723,119.993152 121.66523,119.475152 121.66523,119.475152 L210.07923,119.475152 L213.93323,110.642152 L271.26623,110.642152 L275.37023,119.583152 L280.03723,119.583152 L272.231739,202.367414" id="Stroke-12" stroke="#9B9B9B" stroke-linecap="round" stroke-linejoin="round"></path>
            <polygon id="Fill-4" fill="#FEFEFE" points="91.2192303 168.954252 87.2452303 171.225252 82.7462303 180.439252 84.5832303 167.800252 87.9582303 153.891252 185.62523 153.891252 237.81423 154.558252 232.38423 176.704252 181.55723 177.406252 175.11623 169.694252"></polygon>
            <path d="M234.231739,197.367414 L247.07303,181.604952 C247.07303,181.604952 246.78903,179.933952 245.55003,178.864952 C244.31203,177.794952 242.44203,177.406952 242.44203,177.406952 L181.55703,177.406952 L176.43303,170.802952 C176.43303,170.802952 175.86003,169.970952 175.11603,169.693952 C174.37303,169.416952 173.74003,169.474952 173.74003,169.474952 L91.4040303,169.474952 C91.4040303,169.474952 88.8760303,169.591952 87.6380303,170.738952 C86.4010303,171.885952 85.3860303,175.539952 85.3860303,175.539952 L73.5340303,217.062952" id="Stroke-6" stroke="#054B7A" stroke-width="1.866" stroke-linecap="round" stroke-linejoin="round"></path>
            <path d="M232.91103,153.380552 L235.09603,144.281552 L227.86503,144.281552 L225.54103,138.449552 L173.52103,138.449552 L170.35703,144.981552 L85.4440303,144.981552 C85.4440303,144.981552 82.9420303,144.981552 81.4930303,146.356552 C80.0440303,147.731552 79.2100303,151.279552 79.2100303,151.279552 L69.9370303,219.395552 L71.8170303,222.428552 L120.98103,222.428552 L123.31403,222.428552" id="Stroke-8" stroke="#054B7A" stroke-width="1.866" stroke-linecap="round" stroke-linejoin="round"></path>
            <polyline id="Stroke-10" stroke="#054B7A" stroke-width="1.866" stroke-linecap="round" stroke-linejoin="round" points="77.6787303 201.258852 87.5117303 153.612852 238.67373 153.612852 232.45973 176.239852"></polyline>
            <path d="M118.04363,230.479152 L137.18763,200.642152 C137.18763,200.642152 138.40463,198.923152 139.70763,198.267152 C141.00963,197.610152 142.68663,197.475152 142.68663,197.475152 L233.51963,197.475152 L240.53063,202.808152 L315.19763,202.808152 L270.04763,237.642152 L114.54763,237.642152 L112.08063,233.642152 L112.13363,222.428152" id="Stroke-14" stroke="#9B9B9B" stroke-linecap="round" stroke-linejoin="round"></path>
            <polygon id="Fill-16" fill="#EF800E" points="70.2033303 182.303252 57.3703303 169.470252 57.3703303 177.170252 41.9703303 177.170252 41.9703303 187.436252 57.3703303 187.436252 57.3703303 195.136252"></polygon>
            <text id="There-are-currently" font-family="FidelitySans-Regular, Fidelity Sans" font-size="12" font-weight="normal" line-spacing="14" fill="#7A7A7A">
                <tspan x="39.7694904" y="77">There are currently no sub-portfolios defined for this </tspan>
                <tspan x="39.7694904" y="91">fund. Click “Add New” to get started.</tspan>
            </text>
            <g id="Button---Orange-XL" transform="translate(74.551064, 268.870071)">
                <g id="BG">
                    <use fill="url(#linearGradient-1)" fill-rule="evenodd" xlink:href="#path-2"></use>
                    <use stroke="#DE5E06" mask="url(#mask-3)" stroke-width="2" xlink:href="#path-2"></use>
                </g>
                <text id="8:24:10:24" font-family="FidelitySans-Regular, Fidelity Sans" font-size="24" font-weight="normal" line-spacing="30" fill="#FFFFFF">
                    <tspan x="35.9008879" y="32">Add New</tspan>
                </text>
                <path d="M155.884337,10.7485188 C148.308777,10.7485188 142.167124,16.8901726 142.167124,24.4657325 C142.167124,32.0412924 148.308777,38.1829462 155.884337,38.1829462 C163.459897,38.1829462 169.601551,32.0412924 169.601551,24.4657325 C169.601551,16.8901726 163.459897,10.7485188 155.884337,10.7485188 L155.884337,10.7485188 Z M162.4686,25.5631096 L156.981714,25.5631096 L156.981714,31.0499951 C156.981714,31.6572104 156.491553,32.1473722 155.884337,32.1473722 C155.277122,32.1473722 154.78696,31.6572104 154.78696,31.0499951 L154.78696,25.5631096 L149.300075,25.5631096 C148.692859,25.5631096 148.202698,25.0729478 148.202698,24.4657325 C148.202698,23.8585172 148.692859,23.3683554 149.300075,23.3683554 L154.78696,23.3683554 L154.78696,17.8814699 C154.78696,17.2742546 155.277122,16.7840928 155.884337,16.7840928 C156.491553,16.7840928 156.981714,17.2742546 156.981714,17.8814699 L156.981714,23.3683554 L162.4686,23.3683554 C163.075815,23.3683554 163.565977,23.8585172 163.565977,24.4657325 C163.565977,25.0729478 163.075815,25.5631096 162.4686,25.5631096 L162.4686,25.5631096 Z" id="Expand-24" fill="#FFFFFF"></path>
            </g>
        </g>
    </g>
</svg>