<svg id="Layer_1" data-name="Layer 1" xmlns="http://www.w3.org/2000/svg" xmlns:xlink="http://www.w3.org/1999/xlink" viewBox="0 0 16 16"><defs><style>.cls-1,.cls-4{fill:#2167ac;}.cls-1,.cls-2{clip-rule:evenodd;}.cls-2,.cls-3,.cls-8{fill:none;}.cls-4{fill-rule:evenodd;}.cls-5{clip-path:url(#clip-path);}.cls-6{clip-path:url(#clip-path-2);}.cls-7{clip-path:url(#clip-path-3);}.cls-8{stroke:#1068a9;stroke-miterlimit:10;stroke-width:2px;}</style><clipPath id="clip-path"><path class="cls-1" d="M-16.55,0a3,3,0,0,0-3,3V13a3,3,0,0,0,3,3h10a3,3,0,0,0,3-3V3a3,3,0,0,0-3-3Z"/></clipPath><clipPath id="clip-path-2"><path class="cls-2" d="M-8.67,4.95l-4,5-1.44-1.44a.34.34,0,0,0-.48,0,.34.34,0,0,0,0,.48l1.71,1.71a.34.34,0,0,0,.24.1.63.63,0,0,0,.27-.13l4.29-5.31a.34.34,0,0,0-.05-.48A.34.34,0,0,0-8.67,4.95Z"/></clipPath><clipPath id="clip-path-3"><rect class="cls-3" x="-704" y="-461" width="2839" height="1836"/></clipPath></defs><title>unchecked</title><path class="cls-4" d="M-16.55,0a3,3,0,0,0-3,3V13a3,3,0,0,0,3,3h10a3,3,0,0,0,3-3V3a3,3,0,0,0-3-3Z"/><g class="cls-7"><path class="cls-8" d="M4,.92a3,3,0,0,0-3,3V12a3,3,0,0,0,3,3h8a3,3,0,0,0,3-3V3.93a3,3,0,0,0-3-3Z"/></g></svg>